<svg xmlns="http://www.w3.org/2000/svg"  viewBox="0 0 64 64" width="144px" height="144px"><path d="M 26.427734 10.003906 C 25.60248 10.065322 24.828672 10.615781 24.529297 11.519531 L 23.082031 15.886719 C 22.913031 16.397719 22.42025 16.712719 21.90625 16.636719 L 16.679688 15.859375 C 15.110687 15.626375 13.838828 17.166141 14.298828 18.744141 L 15.732422 23.664062 C 15.895422 24.226063 15.616797 24.826016 15.091797 25.041016 L 10.373047 26.974609 C 8.8680469 27.591609 8.5204219 29.645719 9.7324219 30.761719 L 13.263672 34.011719 C 13.730672 34.442719 13.7535 35.195297 13.3125 35.654297 L 10.779297 38.289062 C 9.8352969 39.271062 9.9609687 40.897937 11.042969 41.710938 L 13.279297 43.392578 C 13.628297 43.655578 13.795125 44.108875 13.703125 44.546875 L 13.1875 47.017578 C 12.8595 48.586578 14.167547 49.998797 15.685547 49.716797 L 20.083984 48.900391 L 20.453125 48.900391 C 22.978274 52.579615 27.209994 55 32 55 C 36.790006 55 41.021726 52.579615 43.546875 48.900391 L 43.917969 48.900391 L 48.314453 49.71875 C 49.832453 50.00075 51.1405 48.587531 50.8125 47.019531 L 50.296875 44.548828 C 50.204875 44.109828 50.371703 43.657531 50.720703 43.394531 L 52.957031 41.712891 C 54.039031 40.899891 54.165656 39.271062 53.222656 38.289062 L 50.689453 35.654297 C 50.247453 35.194297 50.268328 34.443672 50.736328 34.013672 L 54.267578 30.763672 C 55.479578 29.647672 55.131047 27.592609 53.623047 26.974609 L 48.90625 25.041016 C 48.38125 24.826016 48.101625 24.226063 48.265625 23.664062 L 49.699219 18.744141 C 50.158219 17.166141 48.887359 15.626375 47.318359 15.859375 L 42.091797 16.636719 C 41.577797 16.712719 41.083062 16.397719 40.914062 15.886719 L 39.46875 11.519531 C 38.98975 10.073531 37.295141 9.5312188 36.119141 10.449219 L 32.648438 13.158203 C 32.263437 13.459203 31.734609 13.459203 31.349609 13.158203 L 27.878906 10.449219 C 27.438281 10.105344 26.922887 9.9670566 26.427734 10.003906 z M 32 23 C 37.523 23 42 27.477 42 33 L 42 41 C 42 46.523 37.523 51 32 51 C 26.477 51 22 46.523 22 41 L 22 33 C 22 27.477 26.477 23 32 23 z M 24.935547 30.001953 C 24.546766 30.027266 24.193141 30.280375 24.056641 30.671875 C 23.874641 31.193875 24.150875 31.761359 24.671875 31.943359 C 24.933149 32.034378 25.215352 32.102421 25.488281 32.181641 C 24.581343 33.005495 24 34.18134 24 35.5 C 24 37.981 26.019 40 28.5 40 C 29.424761 40 30.284243 39.718662 31 39.238281 L 31 41 C 31 41.552 31.448 42 32 42 C 32.552 42 33 41.552 33 41 L 33 39.238281 C 33.715757 39.718662 34.575239 40 35.5 40 C 37.981 40 40 37.981 40 35.5 C 40 34.163932 39.402483 32.975334 38.474609 32.150391 C 38.736724 32.087132 39.001087 32.035321 39.261719 31.964844 C 39.794719 31.820844 40.110797 31.271281 39.966797 30.738281 C 39.820797 30.204281 39.267281 29.893203 38.738281 30.033203 C 33.987281 31.316203 28.975125 31.324687 25.328125 30.054688 C 25.197625 30.009188 25.065141 29.993516 24.935547 30.001953 z M 28.5 33 C 29.879 33 31 34.122 31 35.5 C 31 36.878 29.879 38 28.5 38 C 27.121 38 26 36.878 26 35.5 C 26 34.122 27.121 33 28.5 33 z M 35.5 33 C 36.879 33 38 34.122 38 35.5 C 38 36.878 36.879 38 35.5 38 C 34.121 38 33 36.878 33 35.5 C 33 34.122 34.121 33 35.5 33 z M 28.5 34.5 C 27.948 34.5 27.5 34.948 27.5 35.5 C 27.5 36.052 27.948 36.5 28.5 36.5 C 29.052 36.5 29.5 36.052 29.5 35.5 C 29.5 34.948 29.052 34.5 28.5 34.5 z M 35.5 34.5 C 34.948 34.5 34.5 34.948 34.5 35.5 C 34.5 36.052 34.948 36.5 35.5 36.5 C 36.052 36.5 36.5 36.052 36.5 35.5 C 36.5 34.948 36.052 34.5 35.5 34.5 z M 32 43.251953 C 30.54625 43.251953 29.092937 43.5215 27.648438 44.0625 C 27.131438 44.2565 26.8695 44.834562 27.0625 45.351562 C 27.2565 45.868563 27.833562 46.125547 28.351562 45.935547 C 28.568376 45.854209 28.784154 45.789628 29 45.722656 L 29 46.025391 C 29 46.577391 29.448 47.025391 30 47.025391 C 30.552 47.025391 31 46.577391 31 46.025391 L 31 45.302734 C 32.545321 45.1411 34.08308 45.348299 35.648438 45.935547 C 35.765437 45.978547 35.883 46 36 46 C 36.404 46 36.7865 45.752563 36.9375 45.351562 C 37.1305 44.834563 36.868563 44.2565 36.351562 44.0625 C 34.907063 43.5215 33.45375 43.251953 32 43.251953 z"/></svg>